<mxfile host="app.diagrams.net" modified="2021-01-07T02:42:19.372Z" agent="5.0 (Windows NT 10.0; Win64; x64) AppleWebKit/537.36 (KHTML, like Gecko) Chrome/87.0.4280.88 Safari/537.36" etag="yLqUWkBNii2zSfwPmfkB" version="14.1.8" type="github">
  <diagram id="FYbU50jyOktq2O9yfEbH" name="Page-1">
    <mxGraphModel dx="1221" dy="1814" grid="1" gridSize="10" guides="1" tooltips="1" connect="1" arrows="1" fold="1" page="1" pageScale="1" pageWidth="827" pageHeight="1169" math="0" shadow="0">
      <root>
        <mxCell id="0" />
        <mxCell id="1" parent="0" />
        <mxCell id="XJVTpOc8dTNVy-bA_BUM-2" value="" style="rounded=0;whiteSpace=wrap;html=1;fillColor=none;" parent="1" vertex="1">
          <mxGeometry x="170" y="50" width="460" height="540" as="geometry" />
        </mxCell>
        <mxCell id="XJVTpOc8dTNVy-bA_BUM-3" value="打分平台管理系统" style="rounded=0;whiteSpace=wrap;html=1;fillColor=#f8cecc;strokeColor=#b85450;" parent="1" vertex="1">
          <mxGeometry x="292" y="62" width="216" height="40" as="geometry" />
        </mxCell>
        <mxCell id="XJVTpOc8dTNVy-bA_BUM-4" value="选择proj_id" style="rounded=0;whiteSpace=wrap;html=1;fillColor=#dae8fc;strokeColor=#6c8ebf;" parent="1" vertex="1">
          <mxGeometry x="206" y="142" width="180" height="40" as="geometry" />
        </mxCell>
        <mxCell id="XJVTpOc8dTNVy-bA_BUM-5" value="服务详细信息" style="rounded=0;whiteSpace=wrap;html=1;fillColor=#dae8fc;strokeColor=#6c8ebf;" parent="1" vertex="1">
          <mxGeometry x="420" y="142" width="166" height="40" as="geometry" />
        </mxCell>
        <mxCell id="XJVTpOc8dTNVy-bA_BUM-9" value="load Hdfs模型目录" style="rounded=0;whiteSpace=wrap;html=1;fillColor=#dae8fc;strokeColor=#6c8ebf;" parent="1" vertex="1">
          <mxGeometry x="206" y="212" width="300" height="40" as="geometry" />
        </mxCell>
        <mxCell id="XJVTpOc8dTNVy-bA_BUM-10" value="Load" style="rounded=0;whiteSpace=wrap;html=1;fillColor=#dae8fc;strokeColor=#6c8ebf;" parent="1" vertex="1">
          <mxGeometry x="536" y="212" width="70" height="40" as="geometry" />
        </mxCell>
        <mxCell id="XJVTpOc8dTNVy-bA_BUM-11" value="Hdfs模型配置目录展示/修改" style="rounded=0;whiteSpace=wrap;html=1;fillColor=#dae8fc;strokeColor=#6c8ebf;" parent="1" vertex="1">
          <mxGeometry x="206" y="262" width="300" height="70" as="geometry" />
        </mxCell>
        <mxCell id="XJVTpOc8dTNVy-bA_BUM-12" value="Save" style="rounded=0;whiteSpace=wrap;html=1;fillColor=#dae8fc;strokeColor=#6c8ebf;" parent="1" vertex="1">
          <mxGeometry x="536" y="282" width="70" height="40" as="geometry" />
        </mxCell>
        <mxCell id="XJVTpOc8dTNVy-bA_BUM-13" value="分发注册页面" style="rounded=0;whiteSpace=wrap;html=1;fillColor=#dae8fc;strokeColor=#6c8ebf;" parent="1" vertex="1">
          <mxGeometry x="206" y="352" width="300" height="40" as="geometry" />
        </mxCell>
        <mxCell id="XJVTpOc8dTNVy-bA_BUM-14" value="文件注册" style="rounded=0;whiteSpace=wrap;html=1;fillColor=#dae8fc;strokeColor=#6c8ebf;" parent="1" vertex="1">
          <mxGeometry x="536" y="352" width="70" height="40" as="geometry" />
        </mxCell>
        <mxCell id="XJVTpOc8dTNVy-bA_BUM-15" value="git地址" style="rounded=0;whiteSpace=wrap;html=1;fillColor=#dae8fc;strokeColor=#6c8ebf;" parent="1" vertex="1">
          <mxGeometry x="206" y="412" width="300" height="40" as="geometry" />
        </mxCell>
        <mxCell id="XJVTpOc8dTNVy-bA_BUM-16" value="选择git项目" style="rounded=0;whiteSpace=wrap;html=1;fillColor=#dae8fc;strokeColor=#6c8ebf;" parent="1" vertex="1">
          <mxGeometry x="536" y="412" width="70" height="40" as="geometry" />
        </mxCell>
        <mxCell id="XJVTpOc8dTNVy-bA_BUM-17" value="蓝盾打包" style="rounded=0;whiteSpace=wrap;html=1;fillColor=#dae8fc;strokeColor=#6c8ebf;" parent="1" vertex="1">
          <mxGeometry x="205" y="470" width="300" height="40" as="geometry" />
        </mxCell>
        <mxCell id="XJVTpOc8dTNVy-bA_BUM-18" value="打包" style="rounded=0;whiteSpace=wrap;html=1;fillColor=#dae8fc;strokeColor=#6c8ebf;" parent="1" vertex="1">
          <mxGeometry x="536" y="470" width="70" height="40" as="geometry" />
        </mxCell>
        <mxCell id="XJVTpOc8dTNVy-bA_BUM-19" value="发布系统页面" style="rounded=0;whiteSpace=wrap;html=1;fillColor=#dae8fc;strokeColor=#6c8ebf;" parent="1" vertex="1">
          <mxGeometry x="205" y="530" width="300" height="40" as="geometry" />
        </mxCell>
        <mxCell id="XJVTpOc8dTNVy-bA_BUM-21" value="发布" style="rounded=0;whiteSpace=wrap;html=1;fillColor=#dae8fc;strokeColor=#6c8ebf;" parent="1" vertex="1">
          <mxGeometry x="536" y="530" width="70" height="40" as="geometry" />
        </mxCell>
        <mxCell id="XJVTpOc8dTNVy-bA_BUM-22" value="" style="shape=actor;whiteSpace=wrap;html=1;fillColor=none;" parent="1" vertex="1">
          <mxGeometry x="60" y="252" width="40" height="60" as="geometry" />
        </mxCell>
        <mxCell id="XJVTpOc8dTNVy-bA_BUM-23" value="1、选择proj_id" style="whiteSpace=wrap;html=1;rounded=1;arcSize=50;align=center;verticalAlign=middle;strokeWidth=1;autosize=1;spacing=4;treeFolding=1;treeMoving=1;newEdgeStyle={&quot;edgeStyle&quot;:&quot;entityRelationEdgeStyle&quot;,&quot;startArrow&quot;:&quot;none&quot;,&quot;endArrow&quot;:&quot;none&quot;,&quot;segment&quot;:10,&quot;curved&quot;:1};fillColor=none;" parent="1" vertex="1">
          <mxGeometry x="678" y="147" width="120" height="30" as="geometry" />
        </mxCell>
        <mxCell id="XJVTpOc8dTNVy-bA_BUM-24" value="" style="edgeStyle=entityRelationEdgeStyle;startArrow=none;endArrow=none;segment=10;curved=1;" parent="1" source="XJVTpOc8dTNVy-bA_BUM-5" target="XJVTpOc8dTNVy-bA_BUM-23" edge="1">
          <mxGeometry relative="1" as="geometry">
            <mxPoint x="650" y="150" as="sourcePoint" />
          </mxGeometry>
        </mxCell>
        <mxCell id="XJVTpOc8dTNVy-bA_BUM-25" value="2、模型配置加载" style="whiteSpace=wrap;html=1;rounded=1;arcSize=50;align=center;verticalAlign=middle;strokeWidth=1;autosize=1;spacing=4;treeFolding=1;treeMoving=1;newEdgeStyle={&quot;edgeStyle&quot;:&quot;entityRelationEdgeStyle&quot;,&quot;startArrow&quot;:&quot;none&quot;,&quot;endArrow&quot;:&quot;none&quot;,&quot;segment&quot;:10,&quot;curved&quot;:1};fillColor=none;" parent="1" vertex="1">
          <mxGeometry x="678" y="217" width="130" height="30" as="geometry" />
        </mxCell>
        <mxCell id="XJVTpOc8dTNVy-bA_BUM-26" value="" style="edgeStyle=entityRelationEdgeStyle;startArrow=none;endArrow=none;segment=10;curved=1;exitX=1;exitY=0.5;exitDx=0;exitDy=0;" parent="1" source="XJVTpOc8dTNVy-bA_BUM-10" target="XJVTpOc8dTNVy-bA_BUM-25" edge="1">
          <mxGeometry relative="1" as="geometry">
            <mxPoint x="690" y="252" as="sourcePoint" />
          </mxGeometry>
        </mxCell>
        <mxCell id="XJVTpOc8dTNVy-bA_BUM-27" value="3、修改模型配置文件" style="whiteSpace=wrap;html=1;rounded=1;arcSize=50;align=center;verticalAlign=middle;strokeWidth=1;autosize=1;spacing=4;treeFolding=1;treeMoving=1;newEdgeStyle={&quot;edgeStyle&quot;:&quot;entityRelationEdgeStyle&quot;,&quot;startArrow&quot;:&quot;none&quot;,&quot;endArrow&quot;:&quot;none&quot;,&quot;segment&quot;:10,&quot;curved&quot;:1};fillColor=none;" parent="1" vertex="1" collapsed="1">
          <mxGeometry x="668" y="287" width="150" height="30" as="geometry" />
        </mxCell>
        <mxCell id="XJVTpOc8dTNVy-bA_BUM-28" value="" style="edgeStyle=entityRelationEdgeStyle;startArrow=none;endArrow=none;segment=10;curved=1;exitX=1;exitY=0.5;exitDx=0;exitDy=0;" parent="1" target="XJVTpOc8dTNVy-bA_BUM-27" edge="1">
          <mxGeometry relative="1" as="geometry">
            <mxPoint x="606" y="301" as="sourcePoint" />
          </mxGeometry>
        </mxCell>
        <mxCell id="XJVTpOc8dTNVy-bA_BUM-29" value="4、模型配置注册/Dense注册" style="whiteSpace=wrap;html=1;rounded=1;arcSize=50;align=center;verticalAlign=middle;strokeWidth=1;autosize=1;spacing=4;treeFolding=1;treeMoving=1;newEdgeStyle={&quot;edgeStyle&quot;:&quot;entityRelationEdgeStyle&quot;,&quot;startArrow&quot;:&quot;none&quot;,&quot;endArrow&quot;:&quot;none&quot;,&quot;segment&quot;:10,&quot;curved&quot;:1};fillColor=none;" parent="1" vertex="1">
          <mxGeometry x="659" y="357" width="190" height="30" as="geometry" />
        </mxCell>
        <mxCell id="XJVTpOc8dTNVy-bA_BUM-30" value="" style="edgeStyle=entityRelationEdgeStyle;startArrow=none;endArrow=none;segment=10;curved=1;" parent="1" source="XJVTpOc8dTNVy-bA_BUM-14" target="XJVTpOc8dTNVy-bA_BUM-29" edge="1">
          <mxGeometry relative="1" as="geometry">
            <mxPoint x="660" y="399" as="sourcePoint" />
          </mxGeometry>
        </mxCell>
        <mxCell id="XJVTpOc8dTNVy-bA_BUM-31" value="5、选择对应项目git" style="whiteSpace=wrap;html=1;rounded=1;arcSize=50;align=center;verticalAlign=middle;strokeWidth=1;autosize=1;spacing=4;treeFolding=1;treeMoving=1;newEdgeStyle={&quot;edgeStyle&quot;:&quot;entityRelationEdgeStyle&quot;,&quot;startArrow&quot;:&quot;none&quot;,&quot;endArrow&quot;:&quot;none&quot;,&quot;segment&quot;:10,&quot;curved&quot;:1};fillColor=none;" parent="1" vertex="1">
          <mxGeometry x="683" y="420" width="140" height="30" as="geometry" />
        </mxCell>
        <mxCell id="XJVTpOc8dTNVy-bA_BUM-32" value="" style="edgeStyle=entityRelationEdgeStyle;startArrow=none;endArrow=none;segment=10;curved=1;exitX=1;exitY=0.5;exitDx=0;exitDy=0;" parent="1" target="XJVTpOc8dTNVy-bA_BUM-31" edge="1">
          <mxGeometry relative="1" as="geometry">
            <mxPoint x="606" y="434" as="sourcePoint" />
          </mxGeometry>
        </mxCell>
        <mxCell id="XJVTpOc8dTNVy-bA_BUM-33" value="6、蓝盾打包" style="whiteSpace=wrap;html=1;rounded=1;arcSize=50;align=center;verticalAlign=middle;strokeWidth=1;autosize=1;spacing=4;treeFolding=1;treeMoving=1;newEdgeStyle={&quot;edgeStyle&quot;:&quot;entityRelationEdgeStyle&quot;,&quot;startArrow&quot;:&quot;none&quot;,&quot;endArrow&quot;:&quot;none&quot;,&quot;segment&quot;:10,&quot;curved&quot;:1};fillColor=none;" parent="1" vertex="1">
          <mxGeometry x="698.5" y="475.5" width="110" height="30" as="geometry" />
        </mxCell>
        <mxCell id="XJVTpOc8dTNVy-bA_BUM-34" value="" style="edgeStyle=entityRelationEdgeStyle;startArrow=none;endArrow=none;segment=10;curved=1;exitX=1;exitY=0.5;exitDx=0;exitDy=0;" parent="1" source="XJVTpOc8dTNVy-bA_BUM-18" target="XJVTpOc8dTNVy-bA_BUM-33" edge="1">
          <mxGeometry relative="1" as="geometry">
            <mxPoint x="645" y="517" as="sourcePoint" />
          </mxGeometry>
        </mxCell>
        <mxCell id="XJVTpOc8dTNVy-bA_BUM-37" value="7、发布上线/灰度" style="whiteSpace=wrap;html=1;rounded=1;arcSize=50;align=center;verticalAlign=middle;strokeWidth=1;autosize=1;spacing=4;treeFolding=1;treeMoving=1;newEdgeStyle={&quot;edgeStyle&quot;:&quot;entityRelationEdgeStyle&quot;,&quot;startArrow&quot;:&quot;none&quot;,&quot;endArrow&quot;:&quot;none&quot;,&quot;segment&quot;:10,&quot;curved&quot;:1};fillColor=none;" parent="1" vertex="1">
          <mxGeometry x="693" y="535.5" width="130" height="30" as="geometry" />
        </mxCell>
        <mxCell id="XJVTpOc8dTNVy-bA_BUM-38" value="" style="edgeStyle=entityRelationEdgeStyle;startArrow=none;endArrow=none;segment=10;curved=1;" parent="1" source="XJVTpOc8dTNVy-bA_BUM-21" target="XJVTpOc8dTNVy-bA_BUM-37" edge="1">
          <mxGeometry relative="1" as="geometry">
            <mxPoint x="673" y="584" as="sourcePoint" />
          </mxGeometry>
        </mxCell>
        <mxCell id="XJVTpOc8dTNVy-bA_BUM-41" value="打分平台管理系统原型及方案" style="rounded=0;whiteSpace=wrap;html=1;fillColor=#fff2cc;strokeColor=#d6b656;" parent="1" vertex="1">
          <mxGeometry x="260" y="-10" width="280" height="40" as="geometry" />
        </mxCell>
      </root>
    </mxGraphModel>
  </diagram>
</mxfile>
